# xmcd CD database file
#
# Track frame offsets:
#	150
#	2637
#	17700
#	28492
#	40355
#	52737
#	64437
#	74257
#	83590
#	95697
#	107320
#	113852
#	124532
#	134970
#	148855
#	157275
#	170440
#
# Disc length: 2409 seconds
#
# Revision: 0
# Processed by: cddbd v1.5.1PL0 Copyright (c) Steve Scherf et al.
# Submitted via: CDex 1.50
#
DISCID=f3096711
DTITLE=Patsy Cline - A Star Is Born
DYEAR=2000
DGENRE=Country
TTITLE0=Intro
TTITLE1=Walking After Midnight
TTITLE2=Try Again
TTITLE3=Two Cigarettes In The Ashtray
TTITLE4=Then You'll Know
TTITLE5=Too Many Secrets
TTITLE6=Come On In (& Make Yourself At Home)
TTITLE7=I Don't Wanna
TTITLE8=Your Cheating Heart
TTITLE9=Dont Ever Leave Me Again
TTITLE10=The Man Upstairs
TTITLE11=Stop The World (& Let Me Off)
TTITLE12=Down By The Riverside
TTITLE13=Wrtite Me In Care Of The Blues
TTITLE14=No Wheels On This Ship
TTITLE15=Hungry For Love
TTITLE16=Walking Dream
EXTD=YEAR: 2000
EXTT0=
EXTT1=
EXTT2=
EXTT3=
EXTT4=
EXTT5=
EXTT6=
EXTT7=
EXTT8=
EXTT9=
EXTT10=
EXTT11=
EXTT12=
EXTT13=
EXTT14=
EXTT15=
EXTT16=
PLAYORDER=
